<svg data-v-0dd9719b="" version="1.0" xmlns="http://www.w3.org/2000/svg" xmlns:xlink="http://www.w3.org/1999/xlink" width="100%" height="100%" viewBox="0 0 340.000000 250.000000" preserveAspectRatio="xMidYMid meet" color-interpolation-filters="sRGB" style="margin: auto;"> <rect data-v-0dd9719b="" x="0" y="0" width="100%" height="100%" fill="#fff" fill-opacity="1" class="background"></rect> <rect data-v-0dd9719b="" x="0" y="0" width="100%" height="100%" fill="url(#watermark)" fill-opacity="1" class="watermarklayer"></rect> <g data-v-0dd9719b="" fill="#333333" class="icon-text-wrapper icon-svg-group iconsvg" transform="translate(47.81999969482422,96.79390716552734)"><g class="iconsvg-imagesvg" transform="translate(0,0)"><g><rect fill="#333333" fill-opacity="0" stroke-width="2" x="0" y="0" width="60" height="56.4121850319669" class="image-rect"></rect> <svg x="0" y="0" width="60" height="56.4121850319669" filtersec="colorsb2120662056" class="image-svg-svg primary" style="overflow: visible;"><svg xmlns="http://www.w3.org/2000/svg" viewBox="0 0 106.36000061035156 100"><g><g><path fill="#02035e" d="M31.46 8.31L0 0v100l31.46-8.31 11.97-3.17V11.48L31.46 8.31z"></path><path fill="#00b0d8" opacity=".8" d="M62.93 8.31L31.46 0v100l31.47-8.31 11.96-3.17V11.48L62.93 8.31z"></path><path fill="#00b0d8" opacity=".5" d="M62.93 0v100l43.43-11.48V11.48L62.93 0z"></path></g></g></svg></svg> <!----></g></g> <g transform="translate(67,16.201093673706055)"><g data-gra="path-name" fill-rule="" class="tp-name iconsvg-namesvg"><g transform="scale(1)"><g><path d="M21.62-16.22L21.62-16.22 18.6-16.22Q17.47-20.87 12.19-20.99L12.19-20.99Q4.9-20.61 4.65-11.69L4.65-11.69Q4.65-2.14 12.32-2.14L12.32-2.14Q17.6-2.26 18.85-8.55L18.85-8.55 21.87-8.55Q20.49 0.13 11.69 0.38L11.69 0.38Q1.63 0 1.38-11.56L1.38-11.56Q1.89-23.13 12.19-23.63L12.19-23.63Q20.36-23.38 21.62-16.22ZM43.74-11.44L43.74-11.44Q43.24-20.49 35.7-20.99L35.7-20.99Q28.03-20.61 27.65-11.44L27.65-11.44Q28.03-2.51 35.7-2.14L35.7-2.14Q43.24-2.64 43.74-11.44ZM46.89-11.44L46.89-11.44Q46.13 0 35.7 0.38L35.7 0.38Q25.14 0 24.39-11.44L24.39-11.44Q25.01-23.38 35.7-23.63L35.7-23.63Q46.13-23.25 46.89-11.44ZM69.76-16.22L69.76-16.22 66.75-16.22Q65.61-20.87 60.34-20.99L60.34-20.99Q53.04-20.61 52.79-11.69L52.79-11.69Q52.79-2.14 60.46-2.14L60.46-2.14Q65.74-2.26 67-8.55L67-8.55 70.01-8.55Q68.63 0.13 59.83 0.38L59.83 0.38Q49.78 0 49.53-11.56L49.53-11.56Q50.03-23.13 60.34-23.63L60.34-23.63Q68.51-23.38 69.76-16.22ZM88.87 0L86.61-6.66 77.3-6.66 74.92 0 71.77 0 80.45-23 83.97-23 92.26 0 88.87 0ZM81.96-19.61L78.31-9.43 85.47-9.43 82.08-19.61 81.96-19.61ZM95.03-23L98.17-23 98.17-2.77 109.86-2.77 109.86 0 95.03 0 95.03-23ZM116.4-2.77L130.22-2.77 130.22 0 113.25 0 113.25-23 129.97-23 129.97-20.36 116.4-20.36 116.4-13.2 128.97-13.2 128.97-10.43 116.4-10.43 116.4-2.77ZM145.31-9.93L137.77-9.93 137.77 0 134.62 0 134.62-23 145.31-23Q152.97-23 152.97-16.84L152.97-16.84Q152.97-13.07 149.71-11.31L149.71-11.31Q152.47-10.56 152.47-6.91L152.47-6.91 152.72-2.77Q152.6-1.01 153.85-0.5L153.85-0.5 153.85 0 149.96 0Q149.58-1.63 149.46-5.78L149.46-5.78Q149.58-9.93 145.31-9.93L145.31-9.93ZM145.56-20.49L137.77-20.49 137.77-12.57 145.06-12.57Q149.71-12.57 149.71-16.59L149.71-16.59Q149.71-20.49 145.56-20.49L145.56-20.49ZM175.6-11.44L175.6-11.44Q175.1-20.49 167.56-20.99L167.56-20.99Q159.89-20.61 159.51-11.44L159.51-11.44Q159.89-2.51 167.56-2.14L167.56-2.14Q175.1-2.64 175.6-11.44ZM178.74-11.44L178.74-11.44Q177.99 0 167.56 0.38L167.56 0.38Q157 0 156.24-11.44L156.24-11.44Q156.87-23.38 167.56-23.63L167.56-23.63Q177.99-23.25 178.74-11.44Z" transform="translate(-1.3799999952316284, 23.6299991607666)"></path></g> <!----> <!----> <!----> <!----> <!----> <!----> <!----></g></g> <!----></g></g><defs v-gra="od"></defs></svg>